<svg width="235" height="235" viewBox="0 0 235 235" fill="none" xmlns="http://www.w3.org/2000/svg">
<circle opacity="0.2" cx="7.5" cy="7.5" r="7.5" transform="matrix(-1 0 0 1 235 0)" fill="black"/>
<circle opacity="0.2" cx="7.5" cy="7.5" r="7.5" transform="matrix(-1 0 0 1 235 110)" fill="black"/>
<circle opacity="0.2" cx="7.5" cy="7.5" r="7.5" transform="matrix(-1 0 0 1 235 55)" fill="black"/>
<circle opacity="0.2" cx="7.5" cy="7.5" r="7.5" transform="matrix(-1 0 0 1 235 165)" fill="black"/>
<circle opacity="0.2" cx="7.5" cy="7.5" r="7.5" transform="matrix(-1 0 0 1 235 220)" fill="black"/>
<circle opacity="0.2" cx="7.5" cy="7.5" r="7.5" transform="matrix(-1 0 0 1 180 0)" fill="black"/>
<circle opacity="0.2" cx="7.5" cy="7.5" r="7.5" transform="matrix(-1 0 0 1 180 110)" fill="black"/>
<circle opacity="0.2" cx="7.5" cy="7.5" r="7.5" transform="matrix(-1 0 0 1 180 55)" fill="black"/>
<circle opacity="0.2" cx="7.5" cy="7.5" r="7.5" transform="matrix(-1 0 0 1 180 165)" fill="black"/>
<circle opacity="0.2" cx="7.5" cy="7.5" r="7.5" transform="matrix(-1 0 0 1 180 220)" fill="black"/>
<circle opacity="0.2" cx="7.5" cy="7.5" r="7.5" transform="matrix(-1 0 0 1 125 0)" fill="black"/>
<circle opacity="0.2" cx="7.5" cy="7.5" r="7.5" transform="matrix(-1 0 0 1 125 110)" fill="black"/>
<circle opacity="0.2" cx="7.5" cy="7.5" r="7.5" transform="matrix(-1 0 0 1 125 55)" fill="black"/>
<circle opacity="0.2" cx="7.5" cy="7.5" r="7.5" transform="matrix(-1 0 0 1 125 165)" fill="black"/>
<circle opacity="0.2" cx="7.5" cy="7.5" r="7.5" transform="matrix(-1 0 0 1 125 220)" fill="black"/>
<circle opacity="0.2" cx="7.5" cy="7.5" r="7.5" transform="matrix(-1 0 0 1 70 0)" fill="black"/>
<circle opacity="0.2" cx="7.5" cy="7.5" r="7.5" transform="matrix(-1 0 0 1 70 110)" fill="black"/>
<circle opacity="0.2" cx="7.5" cy="7.5" r="7.5" transform="matrix(-1 0 0 1 70 55)" fill="black"/>
<circle opacity="0.2" cx="7.5" cy="7.5" r="7.5" transform="matrix(-1 0 0 1 70 165)" fill="black"/>
<circle opacity="0.2" cx="7.5" cy="7.5" r="7.5" transform="matrix(-1 0 0 1 70 220)" fill="black"/>
<circle opacity="0.2" cx="7.5" cy="7.5" r="7.5" transform="matrix(-1 0 0 1 15 0)" fill="black"/>
<circle opacity="0.2" cx="7.5" cy="7.5" r="7.5" transform="matrix(-1 0 0 1 15 110)" fill="black"/>
<circle opacity="0.2" cx="7.5" cy="7.5" r="7.5" transform="matrix(-1 0 0 1 15 55)" fill="black"/>
<circle opacity="0.2" cx="7.5" cy="7.5" r="7.5" transform="matrix(-1 0 0 1 15 165)" fill="black"/>
<circle opacity="0.2" cx="7.5" cy="7.5" r="7.5" transform="matrix(-1 0 0 1 15 220)" fill="black"/>
</svg>
